<?xml version="1.0" encoding="utf-8"?>
<!-- Generator: Adobe Illustrator 14.0.0, SVG Export Plug-In . SVG Version: 6.00 Build 43363)  -->
<!DOCTYPE svg PUBLIC "-//W3C//DTD SVG 1.1//EN" "http://www.w3.org/Graphics/SVG/1.1/DTD/svg11.dtd">
<svg version="1.1" id="Capa_1" xmlns="http://www.w3.org/2000/svg" xmlns:xlink="http://www.w3.org/1999/xlink" x="0px" y="0px"
	 width="38.216px" height="38.216px" viewBox="0 0 38.216 38.216" enable-background="new 0 0 38.216 38.216" xml:space="preserve">
<path fill="#FFFFFF" d="M35.654,9.517c-1.708-2.927-4.026-5.245-6.954-6.954C25.772,0.854,22.576,0,19.109,0
	s-6.664,0.854-9.592,2.563C6.589,4.271,4.271,6.589,2.563,9.517S0,15.642,0,19.108c0,3.467,0.854,6.664,2.563,9.592
	c1.709,2.927,4.027,5.245,6.955,6.954c2.928,1.708,6.125,2.562,9.591,2.562s6.664-0.854,9.592-2.562
	c2.927-1.708,5.245-4.027,6.954-6.954c1.708-2.928,2.563-6.125,2.563-9.592S37.362,12.444,35.654,9.517z M22.293,31.051
	c0,0.232-0.075,0.423-0.224,0.572s-0.339,0.224-0.572,0.224H16.72c-0.232,0-0.423-0.075-0.572-0.224
	c-0.149-0.149-0.224-0.339-0.224-0.572v-4.778c0-0.231,0.075-0.423,0.224-0.572c0.149-0.148,0.34-0.223,0.572-0.223h4.777
	c0.232,0,0.423,0.075,0.572,0.223c0.149,0.149,0.224,0.341,0.224,0.572V31.051z M28.352,16.346
	c-0.207,0.614-0.439,1.116-0.696,1.505c-0.257,0.39-0.626,0.788-1.108,1.194c-0.48,0.406-0.862,0.697-1.145,0.871
	c-0.282,0.174-0.688,0.411-1.219,0.708c-0.547,0.315-0.999,0.726-1.355,1.232c-0.357,0.506-0.535,0.917-0.535,1.231
	c0,0.232-0.075,0.423-0.224,0.572c-0.149,0.149-0.34,0.224-0.572,0.224h-4.777c-0.232,0-0.423-0.075-0.573-0.224
	c-0.149-0.149-0.224-0.34-0.224-0.572v-0.896c0-1.111,0.436-2.152,1.306-3.123c0.871-0.97,1.829-1.688,2.874-2.152
	c0.796-0.365,1.36-0.738,1.691-1.12c0.333-0.381,0.498-0.888,0.498-1.518c0-0.548-0.311-1.037-0.933-1.468s-1.331-0.647-2.127-0.647
	c-0.863,0-1.575,0.199-2.14,0.597c-0.547,0.398-1.261,1.161-2.14,2.289c-0.149,0.199-0.356,0.299-0.622,0.299
	c-0.199,0-0.357-0.05-0.473-0.149l-3.284-2.488c-0.381-0.298-0.448-0.646-0.199-1.045c2.123-3.533,5.2-5.299,9.23-5.299
	c1.443,0,2.854,0.34,4.23,1.02c1.377,0.68,2.525,1.642,3.446,2.886c0.92,1.244,1.381,2.596,1.381,4.056
	C28.663,15.061,28.559,15.732,28.352,16.346z"/>
</svg>
